<svg xmlns="http://www.w3.org/2000/svg" width="1500" height="920" viewBox="0 0 1500 920">
<rect width="1500" height="920" fill="#f6f3ea"/>
<text x="70" y="48" font-size="28" font-family="Segoe UI, Arial" fill="#2f2c24" font-weight="700">Android ???????</text>
<text x="70" y="74" font-size="14" font-family="Segoe UI, Arial" fill="#6f6a5d">screw_puzzle | 2025-09-18 ~ 2026-03-20 | ?? = imp/show??? = (imp+failed)/show</text>
<g transform="translate(1080,46)">
<line x1="0" y1="0" x2="34" y2="0" stroke="#cc5c2b" stroke-width="3"/>
<text x="42" y="5" font-size="13" font-family="Segoe UI, Arial" fill="#2f2c24">imp/show</text>
<line x1="140" y1="0" x2="174" y2="0" stroke="#1f6f78" stroke-width="3"/>
<text x="182" y="5" font-size="13" font-family="Segoe UI, Arial" fill="#2f2c24">(imp+failed)/show</text>
</g>
<g transform="translate(130,90)">
<rect x="0" y="0" width="1320" height="320" rx="18" fill="#fffdf8" stroke="#b9d6da"/>
<text x="32" y="34" font-size="24" font-family="Segoe UI, Arial" fill="#2f2c24" font-weight="700">Interstitial</text>
<line x1="110" y1="270.0" x2="1300" y2="270.0" stroke="#d6d1c4" stroke-width="1"/>
<text x="98" y="275.0" text-anchor="end" font-size="12" font-family="Segoe UI, Arial" fill="#6f6a5d">85%</text>
<line x1="110" y1="238.0" x2="1300" y2="238.0" stroke="#d6d1c4" stroke-width="1"/>
<text x="98" y="243.0" text-anchor="end" font-size="12" font-family="Segoe UI, Arial" fill="#6f6a5d">87%</text>
<line x1="110" y1="206.0" x2="1300" y2="206.0" stroke="#d6d1c4" stroke-width="1"/>
<text x="98" y="211.0" text-anchor="end" font-size="12" font-family="Segoe UI, Arial" fill="#6f6a5d">89%</text>
<line x1="110" y1="174.0" x2="1300" y2="174.0" stroke="#d6d1c4" stroke-width="1"/>
<text x="98" y="179.0" text-anchor="end" font-size="12" font-family="Segoe UI, Arial" fill="#6f6a5d">91%</text>
<line x1="110" y1="142.0" x2="1300" y2="142.0" stroke="#d6d1c4" stroke-width="1"/>
<text x="98" y="147.0" text-anchor="end" font-size="12" font-family="Segoe UI, Arial" fill="#6f6a5d">93%</text>
<line x1="110" y1="110.0" x2="1300" y2="110.0" stroke="#d6d1c4" stroke-width="1"/>
<text x="98" y="115.0" text-anchor="end" font-size="12" font-family="Segoe UI, Arial" fill="#6f6a5d">95%</text>
<line x1="110" y1="78.0" x2="1300" y2="78.0" stroke="#d6d1c4" stroke-width="1"/>
<text x="98" y="83.0" text-anchor="end" font-size="12" font-family="Segoe UI, Arial" fill="#6f6a5d">97%</text>
<line x1="110" y1="46.0" x2="1300" y2="46.0" stroke="#d6d1c4" stroke-width="1"/>
<text x="98" y="51.0" text-anchor="end" font-size="12" font-family="Segoe UI, Arial" fill="#6f6a5d">99%</text>
<polyline fill="none" stroke="#cc5c2b" stroke-width="2.5" points="110.0,91.7 116.5,83.3 123.0,87.4 129.5,88.2 136.0,103.9 142.5,125.1 149.0,131.8 155.5,170.4 162.0,197.6 168.5,204.4 175.0,209.1 181.5,214.6 188.0,218.8 194.5,228.7 201.0,229.4 207.5,233.8 214.0,234.1 220.5,230.1 227.0,232.7 233.6,231.4 240.1,234.7 246.6,232.4 253.1,235.1 259.6,228.3 266.1,233.9 272.6,229.4 279.1,236.3 285.6,231.3 292.1,229.2 298.6,231.4 305.1,233.0 311.6,231.8 318.1,236.0 324.6,227.5 331.1,228.6 337.6,230.1 344.1,233.2 350.6,232.0 357.1,229.9 363.6,232.7 370.1,232.1 376.6,233.6 383.1,231.9 389.6,237.2 396.1,239.8 402.6,235.3 409.1,233.8 415.6,231.9 422.1,233.8 428.6,231.1 435.1,227.9 441.6,228.9 448.1,229.9 454.6,228.1 461.1,229.9 467.7,231.2 474.2,234.4 480.7,236.1 487.2,237.5 493.7,231.3 500.2,235.4 506.7,240.0 513.2,243.5 519.7,243.2 526.2,252.5 532.7,248.6 539.2,246.7 545.7,245.2 552.2,240.3 558.7,240.5 565.2,240.6 571.7,239.7 578.2,240.5 584.7,244.4 591.2,241.1 597.7,239.6 604.2,240.7 610.7,233.9 617.2,233.6 623.7,239.7 630.2,229.3 636.7,212.5 643.2,189.0 649.7,186.7 656.2,182.4 662.7,186.4 669.2,182.2 675.7,179.7 682.2,154.8 688.7,129.7 695.2,117.1 701.7,109.5 708.3,108.0 714.8,104.4 721.3,101.0 727.8,101.2 734.3,101.0 740.8,99.5 747.3,94.4 753.8,94.8 760.3,91.0 766.8,91.4 773.3,92.8 779.8,91.9 786.3,91.7 792.8,92.0 799.3,93.4 805.8,91.2 812.3,87.8 818.8,91.7 825.3,88.4 831.8,90.7 838.3,89.4 844.8,89.0 851.3,87.4 857.8,88.1 864.3,89.1 870.8,89.3 877.3,88.9 883.8,90.3 890.3,89.4 896.8,85.3 903.3,87.8 909.8,86.7 916.3,87.1 922.8,85.3 929.3,86.7 935.8,85.7 942.3,85.4 948.9,83.5 955.4,85.5 961.9,89.4 968.4,88.2 974.9,87.4 981.4,85.9 987.9,85.2 994.4,88.0 1000.9,100.1 1007.4,95.6 1013.9,98.3 1020.4,103.2 1026.9,105.0 1033.4,101.8 1039.9,102.6 1046.4,110.6 1052.9,110.3 1059.4,108.9 1065.9,112.1 1072.4,117.6 1078.9,109.2 1085.4,111.2 1091.9,105.9 1098.4,100.8 1104.9,101.6 1111.4,105.7 1117.9,105.0 1124.4,100.5 1130.9,100.6 1137.4,99.5 1143.9,97.3 1150.4,101.0 1156.9,99.1 1163.4,96.6 1169.9,86.9 1176.4,89.7 1183.0,91.7 1189.5,93.5 1196.0,90.5 1202.5,92.2 1209.0,97.0 1215.5,91.1 1222.0,88.5 1228.5,91.2 1235.0,90.2 1241.5,89.8 1248.0,90.4 1254.5,92.4 1261.0,90.3 1267.5,90.7 1274.0,89.4 1280.5,93.8 1287.0,96.2 1293.5,95.8 1300.0,93.4"/>
<polyline fill="none" stroke="#1f6f78" stroke-width="2.5" points="110.0,65.7 116.5,63.4 123.0,68.1 129.5,68.7 136.0,83.6 142.5,106.2 149.0,112.1 155.5,144.6 162.0,173.3 168.5,183.6 175.0,189.0 181.5,192.7 188.0,197.6 194.5,205.5 201.0,204.9 207.5,208.8 214.0,209.9 220.5,206.2 227.0,206.8 233.6,207.9 240.1,209.5 246.6,206.9 253.1,209.2 259.6,204.7 266.1,207.2 272.6,205.2 279.1,210.7 285.6,207.7 292.1,205.5 298.6,206.6 305.1,206.4 311.6,205.3 318.1,210.4 324.6,202.3 331.1,202.5 337.6,204.4 344.1,208.3 350.6,207.2 357.1,205.0 363.6,208.0 370.1,209.3 376.6,211.0 383.1,208.9 389.6,213.5 396.1,215.3 402.6,211.8 409.1,211.4 415.6,208.1 422.1,211.1 428.6,209.0 435.1,203.2 441.6,204.4 448.1,207.1 454.6,205.5 461.1,207.5 467.7,208.0 474.2,211.6 480.7,212.6 487.2,212.7 493.7,209.0 500.2,210.1 506.7,213.7 513.2,213.6 519.7,212.1 526.2,221.6 532.7,217.6 539.2,215.4 545.7,215.3 552.2,212.2 558.7,213.8 565.2,213.2 571.7,211.5 578.2,213.1 584.7,219.2 591.2,219.6 597.7,220.7 604.2,220.2 610.7,211.9 617.2,211.8 623.7,212.9 630.2,207.1 636.7,187.0 643.2,168.0 649.7,164.8 656.2,163.3 662.7,163.9 669.2,160.4 675.7,161.5 682.2,135.6 688.7,109.8 695.2,98.4 701.7,91.6 708.3,90.1 714.8,87.1 721.3,83.2 727.8,83.4 734.3,83.1 740.8,81.9 747.3,77.7 753.8,76.1 760.3,73.0 766.8,73.3 773.3,74.2 779.8,73.7 786.3,73.8 792.8,73.1 799.3,73.6 805.8,72.6 812.3,70.2 818.8,73.4 825.3,70.4 831.8,72.0 838.3,72.7 844.8,71.5 851.3,69.7 857.8,70.1 864.3,71.3 870.8,71.0 877.3,70.3 883.8,71.8 890.3,71.0 896.8,68.9 903.3,70.1 909.8,68.6 916.3,69.7 922.8,68.6 929.3,70.1 935.8,69.3 942.3,67.6 948.9,67.4 955.4,68.4 961.9,70.5 968.4,70.9 974.9,69.7 981.4,69.2 987.9,68.5 994.4,69.2 1000.9,71.4 1007.4,71.0 1013.9,69.3 1020.4,71.3 1026.9,72.5 1033.4,70.2 1039.9,71.7 1046.4,73.5 1052.9,71.4 1059.4,72.0 1065.9,71.8 1072.4,72.1 1078.9,70.0 1085.4,69.4 1091.9,68.2 1098.4,68.6 1104.9,70.1 1111.4,70.3 1117.9,72.3 1124.4,69.1 1130.9,69.0 1137.4,69.0 1143.9,69.4 1150.4,71.2 1156.9,69.9 1163.4,68.9 1169.9,66.3 1176.4,67.2 1183.0,68.6 1189.5,68.7 1196.0,68.1 1202.5,68.0 1209.0,67.8 1215.5,67.1 1222.0,65.6 1228.5,66.7 1235.0,66.5 1241.5,66.5 1248.0,67.3 1254.5,68.0 1261.0,67.1 1267.5,67.2 1274.0,65.5 1280.5,67.1 1287.0,69.9 1293.5,69.4 1300.0,68.3"/>
<line x1="110.0" y1="270" x2="110.0" y2="276" stroke="#6f6a5d" stroke-width="1"/>
<text x="110.0" y="292" text-anchor="middle" font-size="11" font-family="Segoe UI, Arial" fill="#6f6a5d">2025-09-18</text>
<line x1="409.1" y1="270" x2="409.1" y2="276" stroke="#6f6a5d" stroke-width="1"/>
<text x="409.1" y="292" text-anchor="middle" font-size="11" font-family="Segoe UI, Arial" fill="#6f6a5d">2025-11-03</text>
<line x1="708.3" y1="270" x2="708.3" y2="276" stroke="#6f6a5d" stroke-width="1"/>
<text x="708.3" y="292" text-anchor="middle" font-size="11" font-family="Segoe UI, Arial" fill="#6f6a5d">2025-12-19</text>
<line x1="1007.4" y1="270" x2="1007.4" y2="276" stroke="#6f6a5d" stroke-width="1"/>
<text x="1007.4" y="292" text-anchor="middle" font-size="11" font-family="Segoe UI, Arial" fill="#6f6a5d">2026-02-03</text>
<line x1="1300.0" y1="270" x2="1300.0" y2="276" stroke="#6f6a5d" stroke-width="1"/>
<text x="1300.0" y="292" text-anchor="middle" font-size="11" font-family="Segoe UI, Arial" fill="#6f6a5d">2026-03-20</text>
<rect x="136.0" y="30" width="26.0" height="240" fill="#f3d8c9" opacity="0.35"/>
<text x="149.0" y="48" text-anchor="middle" font-size="12" font-family="Segoe UI, Arial" fill="#2f2c24">09/22-09/26 ???</text>
<circle cx="1300.0" cy="93.4" r="4" fill="#cc5c2b"/>
<circle cx="1300.0" cy="68.3" r="4" fill="#1f6f78"/>
<text x="1310.0" y="97.4" font-size="12" font-family="Segoe UI, Arial" fill="#cc5c2b">96.04%</text>
<text x="1310.0" y="72.3" font-size="12" font-family="Segoe UI, Arial" fill="#1f6f78">97.60%</text>
</g>
<g transform="translate(130,520)">
<rect x="0" y="0" width="1320" height="320" rx="18" fill="#fffdf8" stroke="#b9d6da"/>
<text x="32" y="34" font-size="24" font-family="Segoe UI, Arial" fill="#2f2c24" font-weight="700">Rewarded</text>
<line x1="110" y1="270.0" x2="1300" y2="270.0" stroke="#d6d1c4" stroke-width="1"/>
<text x="98" y="275.0" text-anchor="end" font-size="12" font-family="Segoe UI, Arial" fill="#6f6a5d">85%</text>
<line x1="110" y1="238.0" x2="1300" y2="238.0" stroke="#d6d1c4" stroke-width="1"/>
<text x="98" y="243.0" text-anchor="end" font-size="12" font-family="Segoe UI, Arial" fill="#6f6a5d">87%</text>
<line x1="110" y1="206.0" x2="1300" y2="206.0" stroke="#d6d1c4" stroke-width="1"/>
<text x="98" y="211.0" text-anchor="end" font-size="12" font-family="Segoe UI, Arial" fill="#6f6a5d">89%</text>
<line x1="110" y1="174.0" x2="1300" y2="174.0" stroke="#d6d1c4" stroke-width="1"/>
<text x="98" y="179.0" text-anchor="end" font-size="12" font-family="Segoe UI, Arial" fill="#6f6a5d">91%</text>
<line x1="110" y1="142.0" x2="1300" y2="142.0" stroke="#d6d1c4" stroke-width="1"/>
<text x="98" y="147.0" text-anchor="end" font-size="12" font-family="Segoe UI, Arial" fill="#6f6a5d">93%</text>
<line x1="110" y1="110.0" x2="1300" y2="110.0" stroke="#d6d1c4" stroke-width="1"/>
<text x="98" y="115.0" text-anchor="end" font-size="12" font-family="Segoe UI, Arial" fill="#6f6a5d">95%</text>
<line x1="110" y1="78.0" x2="1300" y2="78.0" stroke="#d6d1c4" stroke-width="1"/>
<text x="98" y="83.0" text-anchor="end" font-size="12" font-family="Segoe UI, Arial" fill="#6f6a5d">97%</text>
<line x1="110" y1="46.0" x2="1300" y2="46.0" stroke="#d6d1c4" stroke-width="1"/>
<text x="98" y="51.0" text-anchor="end" font-size="12" font-family="Segoe UI, Arial" fill="#6f6a5d">99%</text>
<polyline fill="none" stroke="#cc5c2b" stroke-width="2.5" points="110.0,55.4 116.5,53.3 123.0,57.0 129.5,58.7 136.0,70.2 142.5,89.9 149.0,95.0 155.5,117.4 162.0,140.2 168.5,149.4 175.0,152.2 181.5,156.9 188.0,166.2 194.5,173.6 201.0,176.8 207.5,174.7 214.0,171.2 220.5,165.8 227.0,168.5 233.6,170.7 240.1,170.3 246.6,173.0 253.1,176.6 259.6,174.0 266.1,168.3 272.6,169.4 279.1,167.7 285.6,165.7 292.1,163.8 298.6,165.6 305.1,163.4 311.6,159.8 318.1,161.8 324.6,161.7 331.1,161.4 337.6,163.6 344.1,169.7 350.6,165.0 357.1,162.2 363.6,166.5 370.1,169.4 376.6,167.0 383.1,167.0 389.6,169.6 396.1,173.7 402.6,166.6 409.1,166.0 415.6,168.9 422.1,166.6 428.6,165.0 435.1,165.2 441.6,164.7 448.1,164.4 454.6,162.4 461.1,166.5 467.7,165.3 474.2,167.5 480.7,168.6 487.2,169.0 493.7,165.6 500.2,172.0 506.7,174.0 513.2,180.3 519.7,181.4 526.2,185.9 532.7,182.6 539.2,179.6 545.7,177.5 552.2,173.6 558.7,175.4 565.2,175.2 571.7,176.0 578.2,175.5 584.7,178.7 591.2,174.2 597.7,173.5 604.2,172.4 610.7,173.1 617.2,174.1 623.7,177.2 630.2,167.3 636.7,155.4 643.2,139.0 649.7,137.0 656.2,135.4 662.7,141.0 669.2,137.0 675.7,130.2 682.2,115.0 688.7,89.2 695.2,79.0 701.7,72.7 708.3,67.4 714.8,65.1 721.3,66.2 727.8,65.5 734.3,62.6 740.8,62.2 747.3,59.1 753.8,59.3 760.3,58.6 766.8,56.9 773.3,57.0 779.8,57.9 786.3,58.4 792.8,56.2 799.3,54.3 805.8,53.0 812.3,54.6 818.8,55.0 825.3,54.4 831.8,54.1 838.3,55.5 844.8,54.6 851.3,53.0 857.8,55.0 864.3,54.5 870.8,54.8 877.3,55.6 883.8,53.9 890.3,55.2 896.8,54.9 903.3,54.9 909.8,54.7 916.3,58.1 922.8,56.6 929.3,57.0 935.8,58.9 942.3,57.0 948.9,55.3 955.4,57.0 961.9,61.1 968.4,60.4 974.9,60.0 981.4,57.8 987.9,57.6 994.4,58.9 1000.9,81.8 1007.4,72.0 1013.9,73.1 1020.4,84.0 1026.9,84.3 1033.4,85.8 1039.9,82.7 1046.4,91.2 1052.9,93.2 1059.4,86.7 1065.9,91.7 1072.4,104.6 1078.9,91.5 1085.4,92.3 1091.9,88.9 1098.4,78.4 1104.9,79.1 1111.4,83.6 1117.9,80.9 1124.4,78.5 1130.9,80.2 1137.4,80.0 1143.9,75.2 1150.4,79.0 1156.9,77.0 1163.4,77.8 1169.9,65.2 1176.4,69.6 1183.0,71.4 1189.5,70.4 1196.0,67.3 1202.5,68.0 1209.0,71.5 1215.5,62.4 1222.0,63.3 1228.5,65.1 1235.0,65.6 1241.5,66.2 1248.0,67.2 1254.5,64.2 1261.0,63.5 1267.5,63.3 1274.0,69.3 1280.5,64.5 1287.0,66.7 1293.5,70.2 1300.0,65.5"/>
<polyline fill="none" stroke="#1f6f78" stroke-width="2.5" points="110.0,43.6 116.5,46.7 123.0,49.9 129.5,51.7 136.0,63.5 142.5,81.8 149.0,87.2 155.5,106.5 162.0,129.1 168.5,140.5 175.0,143.3 181.5,146.8 188.0,155.9 194.5,163.4 201.0,165.0 207.5,165.1 214.0,162.6 220.5,156.8 227.0,158.3 233.6,160.5 240.1,160.3 246.6,161.8 253.1,164.8 259.6,165.6 266.1,157.5 272.6,160.0 279.1,158.1 285.6,156.5 292.1,154.4 298.6,155.3 305.1,153.7 311.6,151.0 318.1,152.3 324.6,150.7 331.1,151.1 337.6,152.8 344.1,159.2 350.6,155.9 357.1,152.4 363.6,154.7 370.1,158.7 376.6,156.3 383.1,157.3 389.6,158.9 396.1,162.2 402.6,155.6 409.1,155.6 415.6,157.3 422.1,155.9 428.6,155.1 435.1,152.8 441.6,152.5 448.1,152.7 454.6,149.7 461.1,152.7 467.7,151.9 474.2,154.5 480.7,154.4 487.2,156.4 493.7,153.8 500.2,156.5 506.7,157.4 513.2,159.2 519.7,162.1 526.2,164.2 532.7,163.3 539.2,160.3 545.7,160.7 552.2,158.6 558.7,161.0 565.2,160.0 571.7,162.3 578.2,161.3 584.7,163.4 591.2,164.6 597.7,162.7 604.2,162.3 610.7,162.5 617.2,161.7 623.7,162.3 630.2,155.4 636.7,140.6 643.2,127.1 649.7,123.3 656.2,121.4 662.7,121.0 669.2,119.5 675.7,117.9 682.2,101.6 688.7,77.8 695.2,68.6 701.7,61.6 708.3,57.6 714.8,55.4 721.3,56.3 727.8,54.5 734.3,52.9 740.8,51.7 747.3,48.9 753.8,49.3 760.3,48.3 766.8,48.0 773.3,48.1 779.8,47.6 786.3,48.8 792.8,46.5 799.3,45.1 805.8,44.1 812.3,44.8 818.8,45.0 825.3,44.7 831.8,44.2 838.3,45.1 844.8,44.4 851.3,43.8 857.8,44.3 864.3,43.1 870.8,44.0 877.3,44.7 883.8,43.0 890.3,43.8 896.8,44.6 903.3,45.2 909.8,43.4 916.3,46.6 922.8,45.3 929.3,45.7 935.8,46.5 942.3,45.0 948.9,45.3 955.4,45.6 961.9,47.4 968.4,47.7 974.9,45.8 981.4,45.1 987.9,44.9 994.4,44.8 1000.9,46.6 1007.4,45.9 1013.9,44.4 1020.4,44.6 1026.9,46.1 1033.4,45.6 1039.9,46.1 1046.4,46.4 1052.9,44.6 1059.4,44.1 1065.9,44.0 1072.4,45.7 1078.9,45.5 1085.4,45.0 1091.9,44.6 1098.4,43.3 1104.9,43.3 1111.4,43.5 1117.9,43.3 1124.4,44.1 1130.9,42.5 1137.4,43.9 1143.9,43.1 1150.4,42.4 1156.9,42.6 1163.4,44.0 1169.9,43.6 1176.4,43.6 1183.0,44.3 1189.5,44.2 1196.0,43.1 1202.5,42.4 1209.0,43.1 1215.5,42.4 1222.0,42.8 1228.5,43.1 1235.0,42.4 1241.5,42.7 1248.0,43.4 1254.5,43.2 1261.0,43.6 1267.5,43.1 1274.0,42.9 1280.5,42.6 1287.0,44.3 1293.5,44.9 1300.0,43.4"/>
<line x1="110.0" y1="270" x2="110.0" y2="276" stroke="#6f6a5d" stroke-width="1"/>
<text x="110.0" y="292" text-anchor="middle" font-size="11" font-family="Segoe UI, Arial" fill="#6f6a5d">2025-09-18</text>
<line x1="409.1" y1="270" x2="409.1" y2="276" stroke="#6f6a5d" stroke-width="1"/>
<text x="409.1" y="292" text-anchor="middle" font-size="11" font-family="Segoe UI, Arial" fill="#6f6a5d">2025-11-03</text>
<line x1="708.3" y1="270" x2="708.3" y2="276" stroke="#6f6a5d" stroke-width="1"/>
<text x="708.3" y="292" text-anchor="middle" font-size="11" font-family="Segoe UI, Arial" fill="#6f6a5d">2025-12-19</text>
<line x1="1007.4" y1="270" x2="1007.4" y2="276" stroke="#6f6a5d" stroke-width="1"/>
<text x="1007.4" y="292" text-anchor="middle" font-size="11" font-family="Segoe UI, Arial" fill="#6f6a5d">2026-02-03</text>
<line x1="1300.0" y1="270" x2="1300.0" y2="276" stroke="#6f6a5d" stroke-width="1"/>
<text x="1300.0" y="292" text-anchor="middle" font-size="11" font-family="Segoe UI, Arial" fill="#6f6a5d">2026-03-20</text>
<rect x="136.0" y="30" width="26.0" height="240" fill="#f3d8c9" opacity="0.35"/>
<text x="149.0" y="48" text-anchor="middle" font-size="12" font-family="Segoe UI, Arial" fill="#2f2c24">09/22-09/26 ???</text>
<circle cx="1300.0" cy="65.5" r="4" fill="#cc5c2b"/>
<circle cx="1300.0" cy="43.4" r="4" fill="#1f6f78"/>
<text x="1310.0" y="69.5" font-size="12" font-family="Segoe UI, Arial" fill="#cc5c2b">97.78%</text>
<text x="1310.0" y="47.4" font-size="12" font-family="Segoe UI, Arial" fill="#1f6f78">99.16%</text>
</g>
</svg>